<svg height="361pt" viewBox="-4 0 361 361.81333" width="361pt" xmlns="http://www.w3.org/2000/svg"><path d="m353.964844 143.359375c0-36.851563-29.984375-66.835937-66.839844-66.835937-8.195312 0-16.015625 1.554687-23.277344 4.265624-18.796875-22.523437-44.21875-37.730468-72.292968-43.742187v-6.328125c0-16.9375-13.78125-30.71875-30.722657-30.71875-16.9375 0-30.71875 13.78125-30.71875 30.71875v8.125c-54.988281 15.039062-95.574219 65.304688-95.574219 124.996094v102.398437h-3.414062c-16.9375 0-30.71875 13.78125-30.71875 30.722657 0 16.9375 13.78125 30.71875 30.71875 30.71875h93.390625c4.621094 19.832031 22.15625 34.132812 43.144531 34.132812 20.988282 0 38.527344-14.300781 43.144532-34.132812h86.5625c16.941406 0 30.71875-13.78125 30.71875-30.71875 0-16.941407-13.777344-30.722657-30.71875-30.722657h-3.414063v-56.386719c33.660156-3.433593 60.011719-31.941406 60.011719-66.492187zm-13.652344 0c0 29.328125-23.859375 53.183594-53.1875 53.183594-29.324219 0-53.183594-23.855469-53.183594-53.183594s23.859375-53.183594 53.183594-53.183594c29.328125 0 53.1875 23.855469 53.1875 53.183594zm-196.546875-112.640625c0-9.410156 7.652344-17.066406 17.066406-17.066406 9.414063 0 17.066407 7.65625 17.066407 17.066406v4.148438c-4.507813-.472657-9.0625-.734376-13.652344-.734376-6.984375 0-13.789063.710938-20.480469 1.777344zm23.894531 317.441406c-13.378906 0-24.65625-8.4375-28.875-20.480468h57.75c-4.21875 12.042968-15.496094 20.480468-28.875 20.480468zm129.707032-68.265625c9.414062 0 17.066406 7.65625 17.066406 17.066407 0 9.410156-7.652344 17.066406-17.066406 17.066406h-266.242188c-9.414062 0-17.066406-7.65625-17.066406-17.066406 0-9.410157 7.652344-17.066407 17.066406-17.066407h10.242188c3.773437 0 6.824218-3.058593 6.824218-6.828125v-109.226562c0-63.992188 52.0625-116.054688 116.054688-116.054688 33.457031 0 64.820312 14.367188 86.882812 39.347656-18.519531 11.898438-30.84375 32.628907-30.84375 56.226563 0 34.550781 26.355469 63.058594 60.015625 66.492187v63.214844c0 3.769532 3.050781 6.828125 6.824219 6.828125zm0 0"/><path d="m184.726562 266.238281h-13.652343c-3.773438 0-6.828125 3.058594-6.828125 6.828125 0 3.769532 3.054687 6.828125 6.828125 6.828125h13.652343c3.773438 0 6.828126-3.058593 6.828126-6.828125 0-3.769531-3.054688-6.828125-6.828126-6.828125zm0 0"/><path d="m146.039062 266.238281h-70.539062c-3.773438 0-6.828125 3.058594-6.828125 6.828125 0 3.769532 3.054687 6.828125 6.828125 6.828125h70.539062c3.773438 0 6.828126-3.058593 6.828126-6.828125 0-3.769531-3.054688-6.828125-6.828126-6.828125zm0 0"/><path d="m253.699219 149.371094s.007812 0 .007812.003906l27.859375 33.71875c1.292969 1.566406 3.226563 2.476562 5.261719 2.476562 2.03125 0 3.964844-.910156 5.257813-2.476562l27.867187-33.722656c5.546875-6.71875 6.914063-15.949219 3.574219-24.082032-3.226563-7.851562-10.101563-13.039062-18.359375-13.878906-6.507813-.671875-13.226563 1.265625-18.339844 5.226563-5.121094-3.964844-12.007813-5.90625-18.3125-5.230469-8.289063.84375-15.164063 6.03125-18.386719 13.882812-3.34375 8.132813-1.976562 17.363282 3.570313 24.082032zm9.054687-18.894532c.613282-1.492187 2.539063-5.019531 7.160156-5.488281 4.386719-.476562 8.757813 1.617188 11.226563 5.320313 2.53125 3.8125 8.839844 3.8125 11.371094 0 2.46875-3.707032 6.601562-5.800782 11.253906-5.316406 4.59375.464843 6.519531 3.992187 7.136719 5.484374 1.109375 2.71875 1.3125 6.824219-1.476563 10.199219l-22.597656 27.351563-22.601563-27.351563c-2.785156-3.375-2.585937-7.480469-1.472656-10.199219zm0 0"/></svg>